<svg width="44" height="43" viewBox="0 0 44 43" fill="none" xmlns="http://www.w3.org/2000/svg">
<path fill-rule="evenodd" clip-rule="evenodd" d="M3.3174 0.287078C3.4683 0.142844 3.71517 0.182335 3.81354 0.366446L3.82218 0.38262C4.44957 1.55683 5.4341 3.36847 6.34813 4.98629C6.80526 5.79541 7.24352 6.55384 7.61002 7.15902C7.98322 7.77526 8.26499 8.20361 8.4145 8.37683C8.74641 8.76139 10.4418 10.381 12.4562 12.2749C14.4571 14.1562 16.7453 16.283 18.2434 17.6688C19.3256 18.6088 21.3074 20.1879 23.6876 22.0844C25.7722 23.7455 28.1625 25.65 30.5216 27.582C33.0428 29.6467 35.5229 31.7385 37.5376 33.584C39.539 35.4173 41.1196 37.0414 41.8048 38.166C42.0217 38.5219 42.2385 38.8701 42.4463 39.2038C42.8536 39.8579 43.2264 40.4565 43.4972 40.9495C43.7006 41.3197 43.8675 41.6664 43.9467 41.9567C43.9861 42.1009 44.0145 42.2683 43.9921 42.4345C43.9669 42.6216 43.878 42.7915 43.7194 42.8955C43.5798 42.9871 43.4191 43.0056 43.2735 42.9987C43.123 42.9916 42.9506 42.9553 42.7592 42.897C42.376 42.7801 41.8691 42.5596 41.2206 42.2294C39.9208 41.5676 38.0031 40.4393 35.2751 38.7309C31.4311 36.3237 28.5648 34.6102 26.1322 33.1561C21.6778 30.4933 18.6777 28.6999 13.7925 25.108C13.5624 24.9388 13.3455 24.7699 13.1413 24.6014C12.2615 23.8753 11.2531 23.2943 10.1547 22.9863C8.36083 22.4832 6.25309 21.6217 4.42571 20.3227C1.92437 18.5447 -0.11736 15.8934 0.00524868 12.1645C0.122554 8.59685 0.685099 5.88616 1.34796 3.94111C2.00715 2.00684 2.77382 0.806653 3.3174 0.287078V0.287078ZM8.45325 21.6073C9.43149 21.989 10.3323 20.7965 10.4346 19.7515V19.7515C10.5418 18.6575 11.1635 17.7864 11.9999 17.2121V17.2121C12.9411 16.5658 13.7546 14.4969 12.9215 13.7163C12.6197 13.4334 12.3206 13.1528 12.0276 12.8773C10.0348 11.0036 8.29815 9.3469 7.93399 8.92499C7.73547 8.69498 7.42026 8.20766 7.05449 7.6037C6.68203 6.98869 6.23932 6.2224 5.78045 5.4102C5.55171 5.00534 5.31865 4.58853 5.08789 4.17263C4.31567 2.78088 2.49166 2.71846 1.97824 4.22501V4.22501C1.34564 6.08125 0.796406 8.70497 0.681688 12.1939C0.572274 15.5215 2.37865 17.9526 4.78171 19.6608C5.93829 20.483 7.21788 21.1253 8.45325 21.6073ZM11.1073 19.8385C11.0305 20.6228 11.316 21.6148 12.275 22.7442C12.7396 23.2914 13.3578 23.8646 14.1572 24.4523C19.018 28.0263 21.9824 29.7982 26.4159 32.4482C28.849 33.9025 31.7246 35.6213 35.5989 38.0475C38.325 39.7547 40.222 40.8698 41.4947 41.5178C42.1324 41.8425 42.6012 42.0436 42.9328 42.1447C43.0988 42.1954 43.2186 42.2172 43.3012 42.2211V42.2211C43.3051 42.2213 43.3081 42.2177 43.3071 42.2139C43.3053 42.2063 43.3032 42.1982 43.3008 42.1896C43.2499 42.0032 43.1251 41.7294 42.9249 41.3651C42.6643 40.8907 42.3114 40.3242 41.9128 39.6841C41.7024 39.3465 41.4794 38.9883 41.2503 38.6124C40.6304 37.5949 39.1294 36.0372 37.1158 34.1926C35.1154 32.3602 32.6468 30.2779 30.1288 28.2158C27.7931 26.303 25.4099 24.4038 23.324 22.7416C20.9247 20.8296 18.9188 19.2312 17.8311 18.286C16.1384 16.8151 13.7862 16.8921 12.347 17.8802C11.6346 18.3694 11.1842 19.0534 11.1073 19.8385Z" fill="#6495ED"/>
</svg>
